<?xml version="1.0" standalone="no"?>
<!DOCTYPE svg PUBLIC "-//W3C//DTD SVG 20010904//EN"
 "http://www.w3.org/TR/2001/REC-SVG-20010904/DTD/svg10.dtd">
<svg version="1.0" xmlns="http://www.w3.org/2000/svg"
 width="1024.000000pt" height="1024.000000pt" viewBox="0 0 1024.000000 1024.000000"
 preserveAspectRatio="xMidYMid meet">

<g transform="translate(0.000000,1024.000000) scale(0.100000,-0.100000)"
fill="#000000" stroke="none">
<path d="M4480 9644 c-246 -10 -483 -26 -588 -39 -336 -44 -617 -140 -892
-305 -170 -101 -287 -192 -575 -444 -262 -229 -402 -334 -540 -403 -251 -127
-559 -136 -788 -24 -45 22 -111 61 -146 88 -109 83 -153 113 -163 113 -5 0
-21 -12 -35 -26 -25 -25 -26 -27 -20 -142 12 -261 110 -477 301 -667 67 -67
112 -101 171 -132 87 -46 208 -83 279 -86 25 -1 46 -4 46 -5 0 -2 -18 -24 -39
-48 -49 -56 -215 -297 -268 -389 -234 -407 -343 -856 -288 -1190 29 -180 74
-302 160 -436 53 -82 162 -199 209 -224 33 -18 37 -18 52 -3 14 14 13 24 -17
114 -31 93 -33 107 -33 249 -1 159 17 259 66 365 l21 45 18 -125 c23 -157 67
-299 130 -416 l49 -90 -35 -122 c-91 -320 -221 -505 -425 -605 l-85 -42 -125
0 c-121 0 -125 -1 -128 -22 -5 -33 47 -130 102 -190 92 -101 230 -163 364
-163 57 0 63 -2 56 -17 -36 -80 -95 -286 -108 -374 -20 -133 -20 -184 -1 -293
34 -196 85 -296 220 -432 131 -133 241 -196 259 -148 3 8 -1 29 -10 46 -57
109 -81 254 -65 394 5 53 14 101 19 106 5 5 18 -22 32 -64 33 -107 62 -167
119 -252 125 -185 334 -336 569 -410 113 -35 184 -43 201 -22 16 19 14 28 -32
161 -19 55 -38 127 -42 160 -4 33 -9 72 -11 88 -6 38 8 34 31 -10 28 -52 148
-177 221 -229 99 -71 274 -144 345 -144 41 0 40 25 -2 113 -22 47 -39 90 -38
96 2 5 31 -8 64 -31 157 -105 308 -150 589 -174 83 -7 81 -9 -80 -65 -363
-127 -578 -312 -815 -702 -98 -161 -487 -906 -532 -1019 -74 -184 8 -338 239
-452 121 -58 259 -97 414 -116 54 -6 806 -10 2115 -10 2143 0 2132 0 2299 45
238 63 424 211 451 358 13 70 -60 258 -305 782 -198 423 -303 606 -443 768
-130 151 -335 272 -557 329 -69 17 -131 36 -137 41 -26 20 -12 37 45 53 31 9
82 28 112 41 56 25 110 44 110 39 0 -2 -6 -22 -14 -44 -12 -33 -12 -43 -2 -58
11 -14 22 -16 77 -10 88 10 232 58 307 103 58 34 166 136 205 192 24 35 29 22
16 -40 -16 -73 -50 -147 -98 -216 -23 -31 -41 -60 -41 -64 0 -4 8 -15 17 -24
37 -37 282 8 428 79 138 67 212 142 329 330 l18 28 19 -31 c27 -45 99 -111
161 -148 139 -84 373 -95 532 -24 61 26 73 65 31 96 -81 57 -175 165 -175 201
0 7 30 29 68 49 214 117 403 317 507 538 44 93 95 258 95 310 0 52 19 27 37
-50 13 -56 18 -117 18 -213 -1 -142 -7 -174 -59 -297 -29 -71 -26 -93 14 -93
33 0 164 93 221 156 232 259 300 695 169 1085 -63 188 -179 391 -313 548 l-55
65 78 31 c43 17 104 47 136 66 127 75 267 249 321 395 43 119 31 134 -90 110
-135 -26 -223 -30 -314 -13 -220 42 -358 164 -434 385 -23 68 -33 123 -64 357
-54 413 -129 705 -267 1030 -212 499 -530 934 -922 1261 -461 384 -899 550
-1596 605 -128 10 -1289 20 -1470 13z m600 -164 c229 -30 552 -119 800 -220
144 -59 371 -175 480 -245 237 -152 501 -391 684 -620 178 -222 356 -512 451
-735 63 -146 136 -373 125 -384 -5 -5 -10 -33 -10 -61 0 -54 37 -399 46 -427
11 -38 54 -58 120 -58 l63 0 6 -32 c9 -50 21 -218 16 -223 -2 -3 -17 -5 -32
-5 -90 0 -286 -94 -411 -197 -113 -94 -138 -110 -68 -44 84 79 212 165 299
202 82 34 180 61 194 52 7 -4 8 23 3 83 -12 147 -9 141 -77 147 -66 6 -105 26
-119 62 -24 64 -61 446 -47 492 9 27 5 49 -23 130 -116 348 -280 650 -521 959
-115 149 -389 422 -521 520 -289 214 -587 362 -979 483 -241 75 -265 78 -439
52 -147 -22 -285 -55 -374 -89 l-49 -19 184 -6 c960 -30 1837 -567 2242 -1372
166 -332 246 -657 254 -1040 5 -238 10 -232 -75 -95 -49 80 -134 201 -138 197
-1 -1 4 -31 11 -67 87 -419 126 -1030 91 -1452 -25 -302 -70 -588 -141 -883
-70 -290 -131 -467 -231 -666 -108 -216 -147 -275 -395 -594 -55 -71 -125
-167 -155 -212 -64 -97 -174 -305 -174 -330 -1 -52 -86 106 -111 207 -21 83
-16 283 9 405 30 142 81 314 99 333 24 26 230 368 273 452 68 135 207 452 253
580 49 136 67 200 96 340 20 98 14 108 -13 23 -30 -95 -131 -306 -197 -411
-139 -224 -317 -429 -412 -477 -57 -28 -70 -26 -40 8 62 68 159 239 213 376
218 549 256 1282 105 2026 -19 94 -46 208 -60 255 -15 47 -52 175 -84 285 -74
255 -108 353 -189 545 -83 199 -143 319 -244 489 -150 252 -280 425 -417 553
-152 143 -286 214 -458 242 -87 15 -267 30 -228 19 366 -96 682 -361 991 -828
161 -244 292 -504 358 -713 94 -300 132 -560 107 -747 -7 -49 -14 -91 -16 -93
-12 -12 -197 98 -320 191 -377 285 -585 609 -745 1157 -75 261 -113 385 -119
392 -3 4 -6 -71 -7 -165 -2 -363 -93 -719 -303 -1175 -60 -130 -127 -281 -150
-335 -50 -121 -143 -406 -165 -507 -25 -114 -43 -272 -35 -302 4 -16 4 -28 -2
-28 -28 0 -216 68 -289 105 -256 129 -514 368 -675 626 -159 255 -247 514
-276 805 -28 283 17 512 160 809 150 313 332 510 600 648 58 31 132 63 164 72
31 9 57 19 57 22 0 4 -65 0 -180 -13 -106 -11 -248 -64 -335 -124 -108 -74
-228 -219 -327 -395 -54 -96 -139 -284 -228 -505 -46 -113 -107 -261 -137
-329 -29 -68 -55 -136 -57 -150 -2 -14 -30 -71 -63 -126 -33 -55 -80 -138
-106 -185 -188 -347 -408 -995 -446 -1315 -15 -126 -13 -351 4 -470 16 -116
59 -291 76 -311 15 -18 14 -18 -67 7 -306 94 -582 408 -673 768 -34 135 -45
283 -32 420 12 132 43 296 71 377 11 30 16 54 12 54 -12 -1 -167 -238 -231
-355 -121 -218 -200 -478 -201 -662 -1 -44 -2 -46 -15 -29 -28 37 -78 171 -97
261 -34 162 -23 411 28 607 23 90 81 252 128 357 99 219 299 533 495 779 50
61 89 112 87 112 -2 0 -25 -10 -52 -22 -41 -19 -66 -22 -159 -21 -175 1 -294
42 -426 149 -125 100 -239 287 -283 464 -13 52 -22 96 -21 98 2 2 25 -13 53
-32 65 -48 198 -109 292 -136 95 -27 306 -38 404 -21 141 25 324 99 476 194
105 67 194 134 390 301 316 267 386 310 741 451 147 59 314 104 491 131 142
23 469 24 601 2 48 -8 87 -13 87 -11 0 7 -80 37 -145 54 -224 61 -640 42 -877
-40 -116 -40 -362 -176 -351 -194 3 -6 2 -7 -4 -4 -5 4 -25 -5 -44 -19 -45
-34 -73 -49 -65 -36 8 14 113 87 191 134 316 190 633 276 1135 308 173 11 729
4 840 -10z m-873 -146 c-3 -3 -12 -4 -19 -1 -8 3 -5 6 6 6 11 1 17 -2 13 -5z
m-610 -40 c-3 -3 -12 -4 -19 -1 -8 3 -5 6 6 6 11 1 17 -2 13 -5z m1525 -1549
c133 -303 239 -479 419 -690 96 -113 287 -299 399 -388 177 -141 421 -299 437
-283 6 6 -5 217 -24 486 -3 47 -3 83 0 80 3 -3 13 -107 21 -230 9 -124 18
-258 21 -298 l5 -73 -83 45 c-116 64 -295 190 -439 310 -207 174 -403 392
-545 608 -104 158 -313 613 -313 680 0 13 15 -20 34 -72 18 -52 49 -131 68
-175z m-2003 94 c-6 -13 -35 -55 -64 -94 -28 -38 -79 -110 -113 -160 -34 -49
-71 -101 -83 -115 -44 -54 2 20 95 152 52 73 112 158 133 189 38 56 56 72 32
28z m1931 -210 c0 -7 29 -71 64 -143 75 -152 169 -298 289 -446 47 -58 84
-106 83 -107 0 -1 -26 5 -56 13 -160 41 -381 -13 -475 -118 -36 -39 -46 -84
-21 -94 7 -3 42 3 77 12 50 14 103 18 249 18 167 1 197 -2 305 -27 66 -15 130
-32 142 -37 12 -5 64 -47 117 -94 178 -158 310 -249 479 -332 48 -23 92 -44
98 -46 26 -9 52 -617 29 -673 -6 -17 -14 -7 -43 56 -89 194 -231 346 -404 433
-146 73 -361 103 -523 72 -176 -33 -331 -140 -400 -276 -26 -52 -70 -162 -70
-176 0 -2 44 27 98 63 165 113 290 164 432 176 l65 6 -42 -14 c-106 -35 -235
-154 -291 -270 -70 -142 -111 -361 -98 -522 20 -243 129 -454 274 -527 102
-52 248 -54 378 -5 69 26 174 122 223 204 110 182 151 480 100 728 -11 55 -24
109 -30 119 -20 37 7 16 38 -30 42 -62 78 -142 100 -222 25 -94 25 -342 0
-424 -10 -32 -17 -60 -15 -62 5 -4 113 156 122 180 3 10 9 16 12 14 8 -9 -61
-282 -96 -383 -35 -100 -119 -266 -179 -353 -22 -31 -73 -97 -115 -147 -76
-90 -91 -126 -64 -153 7 -7 25 -12 41 -12 31 0 174 46 195 63 22 18 22 2 -3
-92 -56 -208 -105 -285 -263 -413 -285 -229 -647 -385 -1087 -469 -142 -27
-428 -36 -575 -20 -458 53 -998 236 -1288 438 -202 140 -347 320 -413 512 -43
125 -51 218 -44 511 9 322 2 397 -57 610 -65 233 -68 248 -50 255 18 7 14 14
41 -70 31 -97 90 -216 149 -305 91 -135 92 -136 64 -29 -32 125 -36 342 -8
464 39 173 138 315 262 376 55 27 80 33 152 37 l87 4 -51 -35 c-65 -45 -97
-83 -140 -170 -64 -127 -78 -197 -78 -412 0 -164 3 -201 21 -272 79 -298 233
-466 428 -467 86 0 151 26 213 87 55 53 75 86 102 167 86 257 55 640 -71 870
l-31 55 28 -30 27 -30 -7 30 c-22 87 -160 253 -269 323 -187 122 -418 127
-593 14 -120 -79 -227 -216 -285 -366 -30 -78 -53 -116 -70 -116 -14 0 -1 233
21 367 29 183 118 509 172 633 16 38 30 52 96 90 91 53 180 85 283 101 81 13
258 7 300 -9 17 -7 40 -34 64 -79 173 -310 407 -554 690 -716 131 -75 321
-144 445 -162 25 -4 52 -8 60 -11 13 -3 15 23 16 189 0 182 2 198 32 310 49
188 114 360 262 693 144 325 189 437 237 591 25 82 43 116 43 82z m3389 -99
c11 -35 17 -68 14 -74 -5 -7 -39 109 -43 143 -1 18 13 -16 29 -69z m-5403
-210 c18 -120 42 -222 79 -329 14 -41 24 -76 22 -77 -2 -2 -32 2 -68 8 -76 12
-180 -5 -270 -45 -50 -22 -164 -105 -181 -131 -4 -6 -14 -20 -23 -31 -17 -22
-19 -26 42 119 71 171 219 439 337 611 l41 60 3 -40 c1 -22 9 -87 18 -145z
m5509 -266 c18 -93 43 -245 55 -339 34 -273 56 -359 128 -504 56 -114 178
-235 293 -290 115 -55 205 -73 346 -69 l111 3 -16 -28 c-59 -100 -206 -219
-337 -271 -74 -29 -202 -59 -216 -50 -33 20 17 -56 149 -228 111 -145 152
-208 211 -326 102 -203 145 -380 144 -587 -1 -205 -37 -350 -124 -497 -22 -38
-41 -68 -42 -68 -1 0 -2 53 -3 118 0 127 -20 240 -61 357 -37 103 -127 274
-184 349 -27 36 -46 66 -41 66 15 0 102 -128 153 -224 93 -177 136 -326 148
-516 l6 -105 42 85 c66 135 95 270 94 448 -1 201 -48 378 -156 591 -58 114
-120 205 -296 432 l-36 47 -6 -142 c-10 -237 -49 -399 -142 -590 -90 -187
-229 -358 -389 -480 -81 -62 -234 -152 -352 -208 -159 -74 -389 -111 -553 -88
-110 15 -177 41 -272 105 l-77 53 -32 -81 c-90 -227 -248 -490 -407 -676 -100
-118 -205 -251 -233 -298 l-18 -32 40 15 c100 35 261 149 331 233 21 26 37 19
37 -13 0 -27 -38 -147 -69 -219 l-21 -48 23 6 c96 29 237 135 309 233 48 65
122 216 142 293 11 39 15 46 15 26 2 -64 -92 -259 -170 -356 -74 -91 -215
-187 -317 -216 l-22 -6 22 53 c34 83 66 179 74 223 l7 40 -89 -85 c-50 -47
-114 -99 -144 -117 -63 -37 -190 -87 -190 -74 0 17 108 161 233 311 205 246
333 454 428 695 24 61 44 111 45 113 1 2 30 -19 65 -45 125 -94 223 -124 409
-124 192 0 322 34 518 137 207 109 338 205 443 325 150 171 268 408 313 629
89 438 -8 832 -271 1099 l-83 84 0 58 c0 75 -18 288 -35 408 l-12 95 33 32 34
31 0 104 c0 57 -7 142 -15 189 -17 97 -17 95 -9 88 3 -3 20 -82 39 -174z
m-508 64 c-3 -8 -6 -5 -6 6 -1 11 2 17 5 13 3 -3 4 -12 1 -19z m-30 -10 c-3
-8 -6 -5 -6 6 -1 11 2 17 5 13 3 -3 4 -12 1 -19z m40 -60 c-3 -8 -6 -5 -6 6
-1 11 2 17 5 13 3 -3 4 -12 1 -19z m-30 -20 c-3 -7 -5 -2 -5 12 0 14 2 19 5
13 2 -7 2 -19 0 -25z m40 -60 c-3 -8 -6 -5 -6 6 -1 11 2 17 5 13 3 -3 4 -12 1
-19z m168 -1016 c-6 -4 -36 -27 -67 -51 -105 -79 -233 -259 -300 -422 -17 -43
-33 -77 -35 -75 -6 6 36 106 80 190 71 138 180 270 272 332 46 32 72 45 50 26z
m-165 -46 c0 -2 -8 -10 -17 -17 -16 -13 -17 -12 -4 4 13 16 21 21 21 13z m-60
-69 c0 -2 -15 -16 -32 -33 l-33 -29 29 33 c28 30 36 37 36 29z m-60 -71 c0 -2
-8 -10 -17 -17 -16 -13 -17 -12 -4 4 13 16 21 21 21 13z m-2365 -110 c99 -42
97 -193 -3 -257 -57 -36 -106 -38 -153 -6 -47 31 -61 62 -56 125 8 113 111
180 212 138z m-2398 -13 c45 -21 73 -67 73 -118 0 -112 -108 -187 -200 -140
-82 42 -83 186 -3 243 48 34 82 38 130 15z m4630 -305 c-3 -8 -6 -5 -6 6 -1
11 2 17 5 13 3 -3 4 -12 1 -19z m-10 -40 c-3 -8 -6 -5 -6 6 -1 11 2 17 5 13 3
-3 4 -12 1 -19z m-5908 -200 c40 -33 113 -79 160 -102 86 -44 235 -96 272 -96
10 0 20 -1 20 -2 1 -2 5 -169 9 -373 8 -409 14 -448 84 -600 l32 -70 -24 -60
c-42 -105 -71 -243 -83 -400 -12 -165 -6 -272 20 -376 10 -38 17 -69 16 -69
-17 0 -163 58 -204 81 -311 176 -478 482 -500 918 l-6 124 -59 -134 c-107
-241 -153 -436 -144 -607 l5 -85 -28 34 c-41 49 -106 184 -126 259 -13 48 -17
101 -16 200 0 117 5 151 31 251 54 203 130 373 223 496 21 29 39 55 39 58 0 4
-28 -18 -62 -49 -88 -80 -144 -99 -278 -94 -116 4 -166 22 -263 96 -48 37 -48
37 -20 40 51 6 177 44 228 69 139 70 268 209 353 378 40 81 115 270 115 292 0
7 30 -18 66 -54 36 -37 99 -93 140 -125z m1191 52 c11 -11 20 -24 20 -30 0 -5
-12 2 -26 17 l-25 25 -32 -28 c-17 -16 -25 -20 -17 -9 17 24 41 45 52 45 4 0
17 -9 28 -20z m2280 7 c0 -2 -10 -12 -22 -23 l-23 -19 19 23 c18 21 26 27 26
19z m535 -68 c-9 -35 -23 -75 -30 -89 -23 -44 -103 -127 -135 -140 -17 -7 -29
-14 -27 -16 2 -3 21 3 41 11 45 19 66 14 127 -31 l47 -34 15 23 c8 12 26 54
40 92 14 39 26 64 26 58 1 -20 -46 -139 -73 -185 -31 -54 -89 -110 -140 -137
-88 -46 -231 -52 -319 -13 -45 20 -97 73 -97 99 0 28 114 158 130 148 5 -3 10
-1 10 4 0 6 -4 11 -10 11 -11 0 -80 99 -80 115 0 5 10 -6 21 -25 12 -19 31
-46 43 -59 27 -30 113 -71 150 -71 115 0 217 105 257 263 6 26 13 46 16 43 2
-2 -3 -32 -12 -67z m63 51 c27 -25 55 -77 49 -93 -2 -7 -9 5 -16 25 -7 21 -26
49 -42 63 -17 14 -27 25 -22 25 5 0 19 -9 31 -20z m-561 -42 c-3 -7 -5 -2 -5
12 0 14 2 19 5 13 2 -7 2 -19 0 -25z m-1867 -39 c-40 -107 -63 -136 -145 -184
-12 -7 1 -9 45 -7 53 3 65 1 86 -19 85 -80 -70 -239 -232 -239 -81 0 -155 47
-210 132 -28 44 -29 49 -10 42 8 -3 31 10 53 29 21 19 60 41 86 49 l48 14 -30
21 c-16 12 -39 37 -52 55 -20 30 -18 29 19 -8 55 -57 115 -79 171 -64 75 20
134 91 171 203 6 21 14 36 16 34 3 -2 -4 -29 -16 -58z m47 -101 c-2 -29 -3 -8
-3 47 0 55 1 79 3 53 2 -26 2 -71 0 -100z m1830 100 c-3 -8 -6 -5 -6 6 -1 11
2 17 5 13 3 -3 4 -12 1 -19z m-2263 -54 c3 -8 2 -12 -4 -9 -6 3 -10 10 -10 16
0 14 7 11 14 -7z m5824 -511 c9 -261 -45 -472 -169 -654 -54 -82 -174 -206
-264 -274 -65 -49 -185 -122 -185 -113 0 2 -6 53 -14 114 -8 60 -17 163 -20
229 -5 134 -5 136 29 -184 7 -73 16 -135 19 -138 3 -3 50 25 106 61 226 151
391 371 450 601 37 143 47 340 24 505 -4 33 -4 34 7 10 7 -14 14 -85 17 -157z
m-2349 125 c-24 -47 -113 -150 -187 -218 -82 -76 -179 -147 -187 -138 -3 3 15
18 41 33 60 35 252 221 300 290 39 57 53 71 33 33z m-116 -269 c-21 -37 -107
-117 -172 -161 -25 -17 -49 -36 -53 -41 -3 -6 -11 -42 -17 -81 -11 -79 -60
-253 -85 -306 -9 -19 -14 -26 -10 -15 48 161 74 264 84 328 l13 78 71 53 c39
29 96 80 126 114 30 33 56 61 58 61 2 1 -5 -13 -15 -30z m1780 -501 c-45 -194
-54 -346 -28 -492 16 -94 50 -166 107 -231 l42 -48 -104 5 c-58 3 -124 13
-148 22 -69 25 -151 86 -199 145 -47 60 -143 246 -143 277 0 10 19 -24 43 -76
77 -172 152 -262 261 -315 52 -25 149 -45 220 -45 l39 0 -20 23 c-85 91 -124
223 -124 412 0 123 23 287 52 362 16 43 17 23 2 -39z m-5664 -220 c135 -152
423 -323 746 -443 101 -37 110 -42 115 -70 4 -17 16 -49 28 -72 12 -23 22 -45
22 -48 0 -12 -64 -3 -146 21 -151 43 -348 164 -445 273 -71 79 -60 84 12 6
101 -108 288 -224 424 -263 100 -29 138 -35 132 -19 -3 6 -16 37 -28 67 -13
30 -24 56 -25 58 0 1 -43 17 -95 36 -328 116 -656 320 -782 486 -14 19 -30 31
-34 26 -16 -16 -9 -218 11 -276 48 -144 170 -285 305 -354 l34 -18 -7 29 c-21
98 -26 133 -27 205 -2 117 7 105 14 -19 3 -60 15 -138 25 -175 11 -38 18 -68
16 -68 -7 0 -80 43 -119 70 -174 120 -275 297 -275 480 0 45 5 101 11 126 l12
45 17 -28 c9 -15 36 -49 59 -75z m4666 -128 c22 -83 38 -268 31 -357 -6 -75
-23 -158 -41 -206 -7 -15 1 -14 66 9 224 80 347 223 415 483 13 52 27 97 29
100 25 24 -40 -203 -83 -289 -46 -95 -159 -211 -250 -258 -54 -29 -202 -86
-202 -78 0 2 9 29 20 61 45 131 47 338 4 523 -16 70 -17 78 -8 70 3 -3 11 -29
19 -58z m-1316 -32 c-5 -18 -16 -85 -25 -148 -18 -126 -14 -253 10 -331 l14
-46 -66 19 c-43 12 -91 18 -134 16 -41 -2 -72 2 -79 9 -20 20 -39 126 -39 223
l1 95 78 43 c43 24 114 68 157 97 44 30 82 54 86 54 4 1 2 -14 -3 -31z m-439
-290 c0 -97 30 -217 69 -280 l32 -51 -38 -40 c-62 -64 -181 -148 -283 -198
-344 -170 -753 -197 -949 -64 -56 38 -77 67 -93 128 -14 55 -3 87 41 116 24
15 24 15 19 -22 -4 -33 -1 -38 21 -44 13 -3 31 -1 40 4 24 15 43 91 38 156 -3
49 -1 57 12 51 41 -16 219 -16 298 0 156 31 375 116 648 250 72 36 133 65 138
65 4 1 7 -32 7 -71z m-1545 -163 c65 -14 121 -27 123 -29 5 -6 -171 -77 -204
-83 -54 -9 -191 71 -274 161 -17 17 -30 33 -30 36 0 3 60 -9 133 -27 72 -18
186 -45 252 -58z m-11 -1214 c21 -17 20 -96 -2 -378 l-17 -213 45 0 c65 0 90
-21 90 -75 0 -80 -34 -115 -110 -115 -24 0 -28 -5 -34 -37 -3 -21 -6 -55 -6
-76 0 -55 -35 -87 -95 -87 -36 0 -51 6 -72 26 -23 23 -25 31 -21 99 l3 74
-193 3 c-231 4 -222 -1 -222 123 0 96 -13 73 234 400 165 217 203 261 238 268
42 9 146 1 162 -12z m754 -16 c96 -52 150 -137 177 -280 49 -256 -36 -563
-182 -656 -73 -46 -142 -62 -242 -57 -100 5 -148 26 -204 87 -48 53 -66 89
-83 169 -35 167 -2 428 73 577 73 144 163 197 323 192 72 -3 93 -8 138 -32z
m886 9 c9 -8 19 -26 22 -39 5 -22 -22 -507 -31 -531 -2 -7 17 -14 48 -17 68
-9 82 -25 82 -93 0 -71 -23 -94 -96 -94 l-49 0 0 -78 c0 -106 -12 -122 -91
-122 -87 0 -101 18 -97 121 l3 79 -186 0 c-227 0 -222 -2 -227 103 -3 47 1 83
8 98 30 57 416 572 434 579 38 16 163 12 180 -6z"/>
<path d="M2052 6947 c-73 -234 -97 -416 -96 -737 0 -219 3 -273 23 -383 31
-179 75 -351 117 -465 65 -175 157 -333 180 -309 3 2 0 16 -5 30 -6 14 -22 81
-37 149 -36 166 -45 457 -19 637 l16 119 -31 55 c-47 83 -86 200 -111 333 -19
99 -23 153 -23 319 0 114 5 232 12 274 7 40 11 75 9 77 -2 2 -18 -42 -35 -99z"/>
<path d="M4322 6938 c-42 -183 -47 -228 -46 -463 0 -208 3 -242 26 -355 15
-69 31 -136 37 -150 9 -23 10 -22 10 16 1 59 27 204 57 313 14 52 23 104 19
115 -53 179 -75 325 -76 511 0 58 -2 105 -3 105 -2 0 -13 -42 -24 -92z"/>
<path d="M5320 6289 c-60 -12 -95 -26 -152 -61 -47 -29 -133 -129 -126 -147 1
-6 41 7 88 28 197 89 366 130 546 132 l79 0 -40 15 c-102 38 -291 53 -395 33z
m75 -19 c-49 -4 -101 -10 -115 -15 -14 -4 -22 -4 -18 0 13 14 73 23 148 22
l75 0 -90 -7z m153 3 c-10 -2 -26 -2 -35 0 -10 3 -2 5 17 5 19 0 27 -2 18 -5z
m30 -20 c-10 -2 -26 -2 -35 0 -10 3 -2 5 17 5 19 0 27 -2 18 -5z m85 0 c-7 -2
-21 -2 -30 0 -10 3 -4 5 12 5 17 0 24 -2 18 -5z m-423 -13 c-12 -8 -12 -10 -1
-10 11 0 11 -3 1 -15 -7 -8 -18 -15 -24 -15 -6 0 -4 4 4 10 8 5 11 13 6 17 -4
4 -13 1 -19 -7 -7 -8 -19 -15 -27 -15 -8 0 -14 -6 -12 -13 1 -8 -2 -11 -8 -7
-6 4 -18 1 -27 -7 -13 -10 -15 -10 -9 0 8 14 106 72 121 72 6 0 3 -5 -5 -10z
m263 3 c-7 -2 -21 -2 -30 0 -10 3 -4 5 12 5 17 0 24 -2 18 -5z m-216 -9 c-3
-3 -12 -4 -19 -1 -8 3 -5 6 6 6 11 1 17 -2 13 -5z m156 -1 c-7 -2 -19 -2 -25
0 -7 3 -2 5 12 5 14 0 19 -2 13 -5z m-46 -9 c-3 -3 -12 -4 -19 -1 -8 3 -5 6 6
6 11 1 17 -2 13 -5z m-133 -43 c-55 -21 -110 -44 -123 -50 -12 -7 -25 -10 -28
-8 -2 3 5 8 16 12 12 4 18 12 14 21 -3 7 0 14 7 14 6 0 8 -4 5 -10 -7 -12 -3
-12 19 -4 9 3 14 10 11 14 -3 5 5 6 17 3 19 -4 21 -3 8 7 -13 10 -13 11 2 6 9
-3 41 3 70 14 98 35 84 20 -18 -19z m-157 -39 c-10 -10 -14 -22 -10 -27 5 -4
2 -5 -4 -1 -7 4 -13 2 -13 -3 0 -6 -5 -11 -12 -11 -6 0 1 14 17 30 31 32 49
42 22 12z"/>
<path d="M2944 6269 c-28 -4 -61 -12 -75 -17 -21 -8 -17 -10 31 -16 201 -25
285 -51 433 -136 127 -73 141 -66 51 24 -67 66 -168 120 -269 141 -77 16 -96
17 -171 4z m116 -17 c-32 -4 -30 -5 35 -22 76 -19 99 -19 40 0 -66 22 -28 23
43 1 80 -24 178 -86 216 -136 l27 -35 -38 26 c-21 14 -38 29 -38 34 0 5 -4 12
-9 17 -5 5 -6 3 -2 -4 10 -18 9 -18 -85 26 -108 50 -166 69 -234 77 -82 10
-77 24 7 22 40 0 57 -3 38 -6z"/>
<path d="M3200 6202 c0 -13 38 -23 46 -11 3 5 1 9 -5 9 -5 0 -16 3 -25 6 -9 3
-16 2 -16 -4z"/>
<path d="M3276 6166 c10 -8 21 -12 24 -10 5 6 -21 24 -34 24 -6 0 -1 -6 10
-14z"/>
<path d="M2755 5578 l-40 -43 43 40 c23 21 42 40 42 42 0 8 -9 0 -45 -39z"/>
<path d="M3992 4508 c-30 -30 1 -94 33 -68 25 20 13 80 -15 80 -3 0 -11 -5
-18 -12z"/>
<path d="M4714 4042 c-58 -66 -130 -108 -244 -144 l-75 -23 46 -3 c102 -7 252
47 328 117 36 33 42 44 39 73 -5 54 -34 48 -94 -20z"/>
<path d="M3814 4035 c-10 -26 16 -72 55 -99 43 -30 185 -69 233 -64 l33 4 -45
13 c-75 22 -160 72 -197 118 -36 44 -69 55 -79 28z"/>
<path d="M8546 6890 c-4 -25 -8 -53 -9 -62 -1 -9 -4 -15 -7 -13 -3 2 -16 -5
-30 -15 -23 -18 -23 -18 -11 -101 18 -131 30 -275 31 -376 l0 -92 77 -78 c142
-145 248 -344 290 -545 17 -84 19 -88 44 -88 52 0 182 40 260 81 83 43 209
151 241 207 l18 30 -113 0 c-70 0 -135 6 -173 16 -182 47 -338 163 -428 316
-77 130 -116 268 -146 513 -12 93 -25 187 -29 210 l-7 42 -8 -45z"/>
<path d="M1685 5231 c-8 -37 16 -95 82 -193 55 -82 173 -206 218 -228 17 -8
31 -15 33 -16 2 -1 -8 -25 -22 -52 -137 -270 -195 -605 -148 -847 l18 -90 13
98 c7 54 21 131 32 170 20 71 106 257 119 257 4 0 0 -24 -8 -52 -22 -78 -21
-370 2 -518 35 -235 108 -474 197 -652 51 -102 58 -109 136 -132 21 -7 21 -7
7 46 -22 76 -29 285 -15 419 15 142 35 231 73 333 l30 78 -35 82 c-69 160 -88
288 -87 581 2 383 3 375 -21 375 -37 0 -201 60 -279 101 -96 52 -166 105 -262
197 l-76 74 -7 -31z"/>
<path d="M5855 3409 c-49 -33 -114 -71 -144 -86 l-53 -28 5 -110 c3 -60 11
-128 19 -150 l13 -40 95 -6 c52 -4 109 -11 126 -17 l31 -10 -13 57 c-18 75
-17 196 2 332 8 61 14 112 12 114 -2 1 -43 -24 -93 -56z"/>
<path d="M3640 3065 c24 -29 134 -106 187 -131 52 -25 56 -25 101 -11 26 9 70
26 97 38 l50 22 -90 18 c-49 9 -145 31 -212 48 -142 36 -150 37 -133 16z m387
-91 c-3 -3 -12 -4 -19 -1 -8 3 -5 6 6 6 11 1 17 -2 13 -5z"/>
<path d="M3662 1388 l-131 -173 116 -3 c64 -1 117 -1 118 0 4 4 32 342 29 346
-1 2 -60 -75 -132 -170z"/>
<path d="M4496 1579 c-60 -52 -96 -191 -96 -368 0 -151 46 -231 134 -231 53 0
80 19 110 78 39 78 51 147 51 292 0 117 -3 141 -22 182 -37 81 -115 102 -177
47z"/>
<path d="M5358 1428 c-117 -158 -158 -215 -158 -219 0 -2 51 -3 112 -2 l113 2
11 163 c6 90 10 164 9 166 -2 2 -41 -47 -87 -110z"/>
</g>
</svg>
